<svg width="220" height="220" viewBox="0 0 220 220" fill="none" xmlns="http://www.w3.org/2000/svg">
<g filter="url(#filter0_d_9_2)">
<g clip-path="url(#clip0_9_2)">
<rect x="10" y="10" width="200" height="200" rx="100" fill="black"/>
<circle cx="110" cy="110" r="100" fill="#FBFBFB"/>
<path d="M63 66H156" stroke="black" stroke-width="10"/>
<path d="M111 141V48" stroke="black" stroke-width="10"/>
<path d="M67 69.1335L132.813 134.843" stroke="black" stroke-opacity="0.2" stroke-width="10"/>
<path d="M152.025 149L105 229.235" stroke="black" stroke-opacity="0.2" stroke-width="10"/>
<path d="M71 147.396L152.396 65.9999" stroke="black" stroke-width="10"/>
<path d="M67 149H156" stroke="black" stroke-width="10"/>
<line x1="66.6505" y1="142.642" x2="155.65" y2="55.6424" stroke="white"/>
<line x1="60.6505" y1="165.642" x2="149.65" y2="78.6424" stroke="white"/>
<line x1="156" y1="76.0185" x2="156" y2="49" stroke="white" stroke-width="4"/>
<line x1="65" y1="168.019" x2="65" y2="141" stroke="white" stroke-width="4"/>
<line x1="92" y1="59" x2="130" y2="59" stroke="white" stroke-width="4"/>
<line x1="106.5" y1="158" x2="106.5" y2="47" stroke="white"/>
<line x1="116.5" y1="158.005" x2="116.5" y2="49" stroke="white"/>
</g>
<rect x="10.5" y="10.5" width="199" height="199" rx="99.5" stroke="#F7F7F7"/>
</g>
<defs>
<filter id="filter0_d_9_2" x="0" y="0" width="220" height="220" filterUnits="userSpaceOnUse" color-interpolation-filters="sRGB">
<feFlood flood-opacity="0" result="BackgroundImageFix"/>
<feColorMatrix in="SourceAlpha" type="matrix" values="0 0 0 0 0 0 0 0 0 0 0 0 0 0 0 0 0 0 127 0" result="hardAlpha"/>
<feOffset/>
<feGaussianBlur stdDeviation="5"/>
<feComposite in2="hardAlpha" operator="out"/>
<feColorMatrix type="matrix" values="0 0 0 0 0 0 0 0 0 0 0 0 0 0 0 0 0 0 0.1 0"/>
<feBlend mode="normal" in2="BackgroundImageFix" result="effect1_dropShadow_9_2"/>
<feBlend mode="normal" in="SourceGraphic" in2="effect1_dropShadow_9_2" result="shape"/>
</filter>
<clipPath id="clip0_9_2">
<rect x="10" y="10" width="200" height="200" rx="100" fill="white"/>
</clipPath>
</defs>
</svg>
